<svg width="30" height="30" viewBox="0 0 30 30" fill="none" xmlns="http://www.w3.org/2000/svg">
<path fill-rule="evenodd" clip-rule="evenodd" d="M30 15C30 19.0882 27.0019 22.4758 23.0842 23.0842C22.4756 27.0017 19.0881 30 15 30C10.912 29.9998 7.52433 27.0016 6.91584 23.0842C3.13374 22.4965 0.208117 19.3186 0.0106534 15.4208L0 15C2.66953e-05 10.912 2.99845 7.52358 6.91584 6.91495C7.52469 2.99795 10.9124 0.000191374 15 0C19.0878 1.48354e-06 22.4752 2.99788 23.0842 6.91495C27.0019 7.52327 30 10.9117 30 15ZM27.2656 14.7195C27.1407 12.2531 25.3775 10.2203 23.0424 9.68484C22.4271 12.9982 19.8165 15.6081 16.503 16.2234C17.0584 18.6466 19.2266 20.4544 21.8182 20.4545C24.8306 20.4545 27.2727 18.0125 27.2727 15L27.2656 14.7195ZM13.7757 16.5021C11.353 17.058 9.54545 19.2268 9.54545 21.8182C9.54546 24.8305 11.9877 27.2725 15 27.2727C17.5917 27.2727 19.7597 25.4648 20.3152 23.0415C17.0017 22.426 14.3907 19.8158 13.7757 16.5021ZM15 2.72727C12.4087 2.72745 10.2406 4.53482 9.68484 6.95756C12.9981 7.57271 15.6086 10.1831 16.2243 13.4961C18.6472 12.9404 20.4545 10.7733 20.4545 8.18182C20.4545 5.16936 18.0125 2.72727 15 2.72727ZM2.73438 15.2805C2.85931 17.7466 4.62298 19.7785 6.95756 20.3143C7.57314 17.0014 10.1841 14.3912 13.497 13.7757C12.9412 11.353 10.7732 9.54545 8.18182 9.54545C5.16955 9.54567 2.7273 11.9877 2.72727 15L2.73438 15.2805Z" fill="#34D399"/>
</svg>
