<svg width="127" height="30" viewBox="0 0 127 30" fill="none" xmlns="http://www.w3.org/2000/svg">
<path fill-rule="evenodd" clip-rule="evenodd" d="M30 15C30 19.0882 27.0019 22.4758 23.0842 23.0842C22.4756 27.0017 19.0881 30 15 30C10.912 29.9998 7.52433 27.0016 6.91584 23.0842C3.13374 22.4965 0.208117 19.3186 0.0106534 15.4208L0 15C2.66953e-05 10.912 2.99845 7.52358 6.91584 6.91495C7.52469 2.99795 10.9123 0.000191374 15 0C19.0878 1.48354e-06 22.4752 2.99788 23.0842 6.91495C27.0019 7.52327 30 10.9117 30 15ZM27.2656 14.7195C27.1407 12.2531 25.3775 10.2203 23.0424 9.68484C22.4271 12.9982 19.8165 15.6081 16.503 16.2234C17.0584 18.6466 19.2266 20.4544 21.8182 20.4545C24.8306 20.4545 27.2727 18.0125 27.2727 15L27.2656 14.7195ZM13.7757 16.5021C11.353 17.058 9.54545 19.2268 9.54545 21.8182C9.54546 24.8305 11.9877 27.2725 15 27.2727C17.5917 27.2727 19.7597 25.4648 20.3152 23.0415C17.0017 22.426 14.3907 19.8158 13.7757 16.5021ZM15 2.72727C12.4087 2.72745 10.2406 4.53482 9.68484 6.95756C12.9981 7.57271 15.6086 10.1831 16.2243 13.4961C18.6472 12.9404 20.4545 10.7733 20.4545 8.18182C20.4545 5.16936 18.0125 2.72727 15 2.72727ZM2.73438 15.2805C2.85931 17.7466 4.62298 19.7785 6.95756 20.3143C7.57314 17.0014 10.1841 14.3912 13.497 13.7757C12.9412 11.353 10.7732 9.54546 8.18182 9.54545C5.16955 9.54567 2.7273 11.9877 2.72727 15L2.73438 15.2805Z" fill="#34D399"/>
<path d="M44.512 8.752V20.848C44.512 22.32 45.12 23.056 46.336 23.056C47.552 23.056 48.16 22.32 48.16 20.848V8.752C48.16 7.28 47.552 6.544 46.336 6.544C45.12 6.544 44.512 7.28 44.512 8.752ZM40.992 20.624V8.976C40.992 7.184 41.4507 5.79733 42.368 4.816C43.2853 3.83467 44.608 3.344 46.336 3.344C48.064 3.344 49.3867 3.83467 50.304 4.816C51.2213 5.79733 51.68 7.184 51.68 8.976V20.624C51.68 22.416 51.2213 23.8027 50.304 24.784C49.3867 25.7653 48.064 26.256 46.336 26.256C44.608 26.256 43.2853 25.7653 42.368 24.784C41.4507 23.8027 40.992 22.416 40.992 20.624Z" fill="#34D399"/>
<path d="M60.5275 26L56.1435 9.776V26H52.9755V3.6H57.3915L61.0075 17.008V3.6H64.1435V26H60.5275Z" fill="#34D399"/>
<path d="M69.2237 6.8V13.04H74.0557V16.24H69.2237V22.8H75.3037V26H65.7038V3.6H75.3037V6.8H69.2237Z" fill="#34D399"/>
<path d="M76.077 8.976C76.077 7.16267 76.5143 5.776 77.389 4.816C78.2637 3.83467 79.5543 3.344 81.261 3.344C82.9677 3.344 84.2583 3.83467 85.133 4.816C86.0077 5.776 86.445 7.16267 86.445 8.976V9.68H83.117V8.752C83.117 7.28 82.5303 6.544 81.357 6.544C80.1837 6.544 79.597 7.28 79.597 8.752C79.597 9.37067 79.725 9.95733 79.981 10.512C80.237 11.0667 80.5677 11.568 80.973 12.016C81.3783 12.464 81.8263 12.912 82.317 13.36C82.8077 13.7867 83.2877 14.2453 83.757 14.736C84.2477 15.2053 84.6957 15.7173 85.101 16.272C85.5063 16.8053 85.837 17.4453 86.093 18.192C86.349 18.9387 86.477 19.7493 86.477 20.624C86.477 22.4373 86.029 23.8347 85.133 24.816C84.237 25.776 82.9357 26.256 81.229 26.256C79.5223 26.256 78.221 25.776 77.325 24.816C76.429 23.8347 75.981 22.4373 75.981 20.624V19.248H79.309V20.848C79.309 22.2987 79.917 23.024 81.133 23.024C82.349 23.024 82.957 22.2987 82.957 20.848C82.957 20.016 82.7223 19.2373 82.253 18.512C81.7837 17.7653 81.2077 17.0933 80.525 16.496C79.8637 15.8987 79.1917 15.28 78.509 14.64C77.8263 13.9787 77.2503 13.168 76.781 12.208C76.3117 11.2267 76.077 10.1493 76.077 8.976Z" fill="#34D399"/>
<path d="M96.6217 26L95.3418 14.064L94.0618 26H89.2298L86.7337 3.6H90.1578L92.0458 21.264L93.7418 3.6H97.1338L98.8938 21.392L100.718 3.6H103.79L101.294 26H96.6217Z" fill="#34D399"/>
<path d="M111.944 3.6L115.528 26H111.976L111.368 21.936H107.048L106.44 26H103.208L106.792 3.6H111.944ZM109.192 7.568L107.496 18.896H110.888L109.192 7.568Z" fill="#34D399"/>
<path d="M121.391 3.6C124.89 3.6 126.639 5.44533 126.639 9.136V12.048C126.639 15.7387 124.89 17.584 121.391 17.584H119.728V26H116.207V3.6H121.391ZM121.391 6.8H119.728V14.384H121.391C121.967 14.384 122.394 14.224 122.672 13.904C122.97 13.584 123.119 13.04 123.119 12.272V8.912C123.119 8.144 122.97 7.6 122.672 7.28C122.394 6.96 121.967 6.8 121.391 6.8Z" fill="#34D399"/>
</svg>
